<svg xmlns="http://www.w3.org/2000/svg" xmlns:xlink="http://www.w3.org/1999/xlink" width="395" zoomAndPan="magnify" viewBox="0 0 296.25 50.249999" height="67" preserveAspectRatio="xMidYMid meet" version="1.0"><defs><g/><clipPath id="06b0600958"><path d="M 193 6 L 228 6 L 228 41 L 193 41 Z M 193 6 " clip-rule="nonzero"/></clipPath><clipPath id="9b0d43d40d"><path d="M 192.046875 7.933594 L 226.148438 5.394531 L 228.6875 39.5 L 194.582031 42.035156 Z M 192.046875 7.933594 " clip-rule="nonzero"/></clipPath><clipPath id="4678f7cbac"><path d="M 209.097656 6.664062 C 218.515625 5.964844 226.71875 13.03125 227.417969 22.449219 C 228.117188 31.867188 221.050781 40.066406 211.632812 40.769531 C 202.214844 41.46875 194.015625 34.402344 193.3125 24.984375 C 192.613281 15.566406 199.679688 7.363281 209.097656 6.664062 L 209.605469 13.484375 C 203.953125 13.90625 199.714844 18.828125 200.132812 24.476562 C 200.554688 30.128906 205.476562 34.367188 211.125 33.949219 C 216.777344 33.527344 221.015625 28.605469 220.597656 22.957031 C 220.175781 17.304688 215.253906 13.066406 209.605469 13.484375 Z M 209.097656 6.664062 " clip-rule="nonzero"/></clipPath><clipPath id="a9149e1631"><path d="M 209 6 L 228 6 L 228 35 L 209 35 Z M 209 6 " clip-rule="nonzero"/></clipPath><clipPath id="eb3d2ba069"><path d="M 208.992188 7.074219 L 226.3125 5.785156 L 228.402344 33.894531 L 211.085938 35.183594 Z M 208.992188 7.074219 " clip-rule="nonzero"/></clipPath><clipPath id="2b00b7a4f2"><path d="M 213.402344 6.890625 C 218.964844 7.894531 223.675781 11.582031 225.980469 16.746094 C 228.285156 21.910156 227.886719 27.882812 224.917969 32.695312 C 223.925781 34.300781 221.820312 34.800781 220.210938 33.808594 C 218.605469 32.816406 218.105469 30.710938 219.097656 29.101562 C 220.878906 26.214844 221.117188 22.632812 219.734375 19.535156 C 218.351562 16.4375 215.527344 14.222656 212.1875 13.621094 C 210.328125 13.285156 209.09375 11.507812 209.429688 9.648438 C 209.761719 7.789062 211.542969 6.554688 213.402344 6.890625 Z M 213.402344 6.890625 " clip-rule="nonzero"/></clipPath><clipPath id="4228479f07"><path d="M 17.039062 42.5625 L 38.03125 42.5625 L 38.03125 46.339844 L 17.039062 46.339844 Z M 17.039062 42.5625 " clip-rule="nonzero"/></clipPath><clipPath id="eb964cac0c"><path d="M 18.925781 42.5625 L 36.128906 42.5625 C 37.171875 42.5625 38.019531 43.410156 38.019531 44.453125 C 38.019531 45.496094 37.171875 46.339844 36.128906 46.339844 L 18.925781 46.339844 C 17.882812 46.339844 17.039062 45.496094 17.039062 44.453125 C 17.039062 43.410156 17.882812 42.5625 18.925781 42.5625 Z M 18.925781 42.5625 " clip-rule="nonzero"/></clipPath><clipPath id="11cf0428aa"><path d="M 17.039062 42.5625 L 31.097656 42.5625 L 31.097656 46.339844 L 17.039062 46.339844 Z M 17.039062 42.5625 " clip-rule="nonzero"/></clipPath><clipPath id="a1943b8c1f"><path d="M 18.925781 42.5625 L 29.207031 42.5625 C 30.25 42.5625 31.09375 43.410156 31.09375 44.453125 C 31.09375 45.496094 30.25 46.339844 29.207031 46.339844 L 18.925781 46.339844 C 17.882812 46.339844 17.039062 45.496094 17.039062 44.453125 C 17.039062 43.410156 17.882812 42.5625 18.925781 42.5625 Z M 18.925781 42.5625 " clip-rule="nonzero"/></clipPath><clipPath id="a4f3df9e96"><path d="M 27.171875 42.046875 L 31.984375 42.046875 L 31.984375 46.855469 L 27.171875 46.855469 Z M 27.171875 42.046875 " clip-rule="nonzero"/></clipPath><clipPath id="8b1a5b9848"><path d="M 29.578125 42.046875 C 28.25 42.046875 27.171875 43.121094 27.171875 44.453125 C 27.171875 45.78125 28.25 46.855469 29.578125 46.855469 C 30.90625 46.855469 31.984375 45.78125 31.984375 44.453125 C 31.984375 43.121094 30.90625 42.046875 29.578125 42.046875 Z M 29.578125 42.046875 " clip-rule="nonzero"/></clipPath><clipPath id="a3b5f2437f"><path d="M 217 28 L 226 28 L 226 36 L 217 36 Z M 217 28 " clip-rule="nonzero"/></clipPath><clipPath id="1bce8079a6"><path d="M 216.1875 30.699219 L 220.117188 26.769531 L 226.792969 33.445312 L 222.863281 37.375 Z M 216.1875 30.699219 " clip-rule="nonzero"/></clipPath><clipPath id="9c7fea305d"><path d="M 218.152344 28.734375 C 217.066406 29.820312 217.679688 32.191406 219.519531 34.03125 C 221.363281 35.875 223.734375 36.484375 224.820312 35.402344 C 225.902344 34.316406 225.289062 31.945312 223.449219 30.105469 C 221.609375 28.261719 219.238281 27.648438 218.152344 28.734375 Z M 218.152344 28.734375 " clip-rule="nonzero"/></clipPath><clipPath id="66bcd68f2a"><path d="M 195 28 L 204 28 L 204 37 L 195 37 Z M 195 28 " clip-rule="nonzero"/></clipPath><clipPath id="499209e327"><path d="M 200.613281 27.195312 L 204.542969 31.125 L 197.867188 37.796875 L 193.9375 33.871094 Z M 200.613281 27.195312 " clip-rule="nonzero"/></clipPath><clipPath id="8eaebd66c3"><path d="M 202.578125 29.160156 C 201.492188 28.074219 199.121094 28.6875 197.28125 30.527344 C 195.441406 32.367188 194.828125 34.742188 195.910156 35.824219 C 196.996094 36.910156 199.367188 36.296875 201.210938 34.457031 C 203.050781 32.617188 203.664062 30.242188 202.578125 29.160156 Z M 202.578125 29.160156 " clip-rule="nonzero"/></clipPath><clipPath id="650ccea7ef"><path d="M 207.585938 4.996094 L 213.144531 4.996094 L 213.144531 14.4375 L 207.585938 14.4375 Z M 207.585938 4.996094 " clip-rule="nonzero"/></clipPath><clipPath id="0f97d37772"><path d="M 210.367188 4.996094 C 208.832031 4.996094 207.585938 7.105469 207.585938 9.707031 C 207.585938 12.3125 208.832031 14.421875 210.367188 14.421875 C 211.898438 14.421875 213.144531 12.3125 213.144531 9.707031 C 213.144531 7.105469 211.898438 4.996094 210.367188 4.996094 Z M 210.367188 4.996094 " clip-rule="nonzero"/></clipPath></defs><g fill="#000000" fill-opacity="1"><g transform="translate(12.654701, 38.081405)"><g><path d="M 7.265625 0 C 6.484375 0 5.8125 -0.28125 5.25 -0.84375 C 4.6875 -1.40625 4.40625 -2.078125 4.40625 -2.859375 L 4.40625 -29.859375 C 4.40625 -30.429688 4.601562 -30.921875 5 -31.328125 C 5.394531 -31.742188 5.878906 -31.953125 6.453125 -31.953125 C 7.023438 -31.953125 7.515625 -31.742188 7.921875 -31.328125 C 8.335938 -30.921875 8.546875 -30.429688 8.546875 -29.859375 L 8.546875 -4.140625 L 23.40625 -4.140625 C 23.976562 -4.140625 24.46875 -3.929688 24.875 -3.515625 C 25.289062 -3.109375 25.5 -2.617188 25.5 -2.046875 C 25.5 -1.472656 25.289062 -0.988281 24.875 -0.59375 C 24.46875 -0.195312 23.976562 0 23.40625 0 Z M 7.265625 0 "/></g></g></g><g fill="#000000" fill-opacity="1"><g transform="translate(38.837022, 38.081405)"><g><path d="M 17.234375 0.453125 C 15.078125 0.453125 13 0 11 -0.90625 C 9 -1.8125 7.363281 -3.195312 6.09375 -5.0625 C 4.820312 -6.925781 4.1875 -9.207031 4.1875 -11.90625 L 4.1875 -29.859375 C 4.1875 -30.429688 4.378906 -30.921875 4.765625 -31.328125 C 5.160156 -31.742188 5.648438 -31.953125 6.234375 -31.953125 C 6.804688 -31.953125 7.296875 -31.742188 7.703125 -31.328125 C 8.109375 -30.921875 8.3125 -30.429688 8.3125 -29.859375 L 8.3125 -11.765625 C 8.3125 -9.953125 8.726562 -8.410156 9.5625 -7.140625 C 10.394531 -5.867188 11.492188 -4.910156 12.859375 -4.265625 C 14.222656 -3.628906 15.679688 -3.3125 17.234375 -3.3125 C 18.773438 -3.3125 20.226562 -3.628906 21.59375 -4.265625 C 22.957031 -4.910156 24.054688 -5.867188 24.890625 -7.140625 C 25.722656 -8.410156 26.140625 -9.953125 26.140625 -11.765625 L 26.140625 -29.859375 C 26.140625 -30.429688 26.332031 -30.921875 26.71875 -31.328125 C 27.113281 -31.742188 27.601562 -31.953125 28.1875 -31.953125 C 28.757812 -31.953125 29.25 -31.742188 29.65625 -31.328125 C 30.0625 -30.921875 30.265625 -30.429688 30.265625 -29.859375 L 30.265625 -11.90625 C 30.265625 -9.207031 29.628906 -6.925781 28.359375 -5.0625 C 27.085938 -3.195312 25.453125 -1.8125 23.453125 -0.90625 C 21.453125 0 19.378906 0.453125 17.234375 0.453125 Z M 17.234375 0.453125 "/></g></g></g><g fill="#000000" fill-opacity="1"><g transform="translate(73.292226, 38.081405)"><g><path d="M 6.453125 0.234375 C 5.878906 0.234375 5.394531 0.0351562 5 -0.359375 C 4.601562 -0.753906 4.40625 -1.238281 4.40625 -1.8125 L 4.40625 -28.953125 C 4.40625 -29.773438 4.691406 -30.476562 5.265625 -31.0625 C 5.847656 -31.65625 6.546875 -31.953125 7.359375 -31.953125 L 8.859375 -31.953125 C 9.460938 -31.953125 10.015625 -31.769531 10.515625 -31.40625 C 11.015625 -31.039062 11.390625 -30.585938 11.640625 -30.046875 L 21.953125 -4.3125 L 32.265625 -30.046875 C 32.515625 -30.585938 32.890625 -31.039062 33.390625 -31.40625 C 33.890625 -31.769531 34.441406 -31.953125 35.046875 -31.953125 L 36.546875 -31.953125 C 37.359375 -31.953125 38.050781 -31.65625 38.625 -31.0625 C 39.207031 -30.476562 39.5 -29.773438 39.5 -28.953125 L 39.5 -1.8125 C 39.5 -1.238281 39.300781 -0.753906 38.90625 -0.359375 C 38.507812 0.0351562 38.023438 0.234375 37.453125 0.234375 C 36.878906 0.234375 36.382812 0.0351562 35.96875 -0.359375 C 35.5625 -0.753906 35.359375 -1.238281 35.359375 -1.8125 L 35.359375 -27.640625 L 24.859375 -1.6875 C 24.617188 -1.101562 24.234375 -0.632812 23.703125 -0.28125 C 23.171875 0.0625 22.585938 0.234375 21.953125 0.234375 C 21.316406 0.234375 20.734375 0.0625 20.203125 -0.28125 C 19.671875 -0.632812 19.285156 -1.101562 19.046875 -1.6875 L 8.546875 -27.640625 L 8.546875 -1.8125 C 8.546875 -1.238281 8.335938 -0.753906 7.921875 -0.359375 C 7.515625 0.0351562 7.023438 0.234375 6.453125 0.234375 Z M 6.453125 0.234375 "/></g></g></g><g fill="#000000" fill-opacity="1"><g transform="translate(117.20216, 38.081405)"><g><path d="M 6.453125 0.234375 C 5.878906 0.234375 5.394531 0.0351562 5 -0.359375 C 4.601562 -0.753906 4.40625 -1.238281 4.40625 -1.8125 L 4.40625 -29.859375 C 4.40625 -30.429688 4.601562 -30.921875 5 -31.328125 C 5.394531 -31.742188 5.878906 -31.953125 6.453125 -31.953125 C 7.023438 -31.953125 7.515625 -31.742188 7.921875 -31.328125 C 8.335938 -30.921875 8.546875 -30.429688 8.546875 -29.859375 L 8.546875 -1.8125 C 8.546875 -1.238281 8.335938 -0.753906 7.921875 -0.359375 C 7.515625 0.0351562 7.023438 0.234375 6.453125 0.234375 Z M 6.453125 0.234375 "/></g></g></g><g fill="#000000" fill-opacity="1"><g transform="translate(130.156954, 38.081405)"><g><path d="M 4.3125 0.234375 C 3.707031 0.234375 3.210938 0.0351562 2.828125 -0.359375 C 2.453125 -0.753906 2.265625 -1.238281 2.265625 -1.8125 C 2.265625 -2.0625 2.34375 -2.367188 2.5 -2.734375 L 14.09375 -30.09375 C 14.332031 -30.632812 14.671875 -31.078125 15.109375 -31.421875 C 15.546875 -31.773438 16.085938 -31.953125 16.734375 -31.953125 L 17.1875 -31.953125 C 17.820312 -31.953125 18.359375 -31.773438 18.796875 -31.421875 C 19.234375 -31.078125 19.570312 -30.632812 19.8125 -30.09375 L 31.40625 -2.734375 C 31.5625 -2.367188 31.640625 -2.0625 31.640625 -1.8125 C 31.640625 -1.238281 31.445312 -0.753906 31.0625 -0.359375 C 30.6875 0.0351562 30.195312 0.234375 29.59375 0.234375 C 29.164062 0.234375 28.773438 0.117188 28.421875 -0.109375 C 28.078125 -0.335938 27.816406 -0.648438 27.640625 -1.046875 L 24.6875 -8.140625 L 9.234375 -8.140625 L 6.265625 -1.046875 C 6.085938 -0.648438 5.820312 -0.335938 5.46875 -0.109375 C 5.125 0.117188 4.738281 0.234375 4.3125 0.234375 Z M 10.8125 -11.90625 L 23.09375 -11.90625 L 16.953125 -26.6875 Z M 10.8125 -11.90625 "/></g></g></g><g fill="#000000" fill-opacity="1"><g transform="translate(164.066694, 38.081405)"><g><path d="M 14.40625 0.453125 C 10.5625 0.453125 6.957031 -0.273438 3.59375 -1.734375 C 3.226562 -1.878906 2.921875 -2.125 2.671875 -2.46875 C 2.429688 -2.820312 2.3125 -3.195312 2.3125 -3.59375 C 2.3125 -4.101562 2.484375 -4.546875 2.828125 -4.921875 C 3.179688 -5.304688 3.632812 -5.5 4.1875 -5.5 C 4.488281 -5.5 4.773438 -5.4375 5.046875 -5.3125 C 7.835938 -4.070312 10.820312 -3.453125 14 -3.453125 C 19.300781 -3.453125 21.953125 -5.195312 21.953125 -8.6875 C 21.953125 -9.59375 21.609375 -10.347656 20.921875 -10.953125 C 20.242188 -11.554688 19.40625 -12.03125 18.40625 -12.375 C 17.40625 -12.726562 15.984375 -13.148438 14.140625 -13.640625 C 11.679688 -14.273438 9.691406 -14.882812 8.171875 -15.46875 C 6.660156 -16.0625 5.359375 -16.945312 4.265625 -18.125 C 3.179688 -19.3125 2.640625 -20.890625 2.640625 -22.859375 C 2.640625 -24.585938 3.09375 -26.15625 4 -27.5625 C 4.90625 -28.976562 6.242188 -30.101562 8.015625 -30.9375 C 9.796875 -31.769531 11.925781 -32.1875 14.40625 -32.1875 C 17.738281 -32.1875 20.753906 -31.6875 23.453125 -30.6875 C 24.296875 -30.375 24.71875 -29.765625 24.71875 -28.859375 C 24.71875 -28.378906 24.550781 -27.941406 24.21875 -27.546875 C 23.882812 -27.148438 23.445312 -26.953125 22.90625 -26.953125 C 22.726562 -26.953125 22.488281 -27.015625 22.1875 -27.140625 C 19.820312 -27.953125 17.378906 -28.359375 14.859375 -28.359375 C 12.460938 -28.359375 10.515625 -27.90625 9.015625 -27 C 7.515625 -26.09375 6.765625 -24.820312 6.765625 -23.1875 C 6.765625 -22.09375 7.117188 -21.203125 7.828125 -20.515625 C 8.546875 -19.835938 9.441406 -19.304688 10.515625 -18.921875 C 11.597656 -18.546875 13.0625 -18.148438 14.90625 -17.734375 C 17.300781 -17.148438 19.234375 -16.570312 20.703125 -16 C 22.171875 -15.425781 23.425781 -14.53125 24.46875 -13.3125 C 25.519531 -12.101562 26.046875 -10.46875 26.046875 -8.40625 C 26.046875 -6.707031 25.5625 -5.179688 24.59375 -3.828125 C 23.625 -2.484375 22.257812 -1.429688 20.5 -0.671875 C 18.738281 0.078125 16.707031 0.453125 14.40625 0.453125 Z M 14.40625 0.453125 "/></g></g></g><g fill="#000000" fill-opacity="1"><g transform="translate(192.073709, 38.081405)"><g/></g></g><g fill="#000000" fill-opacity="1"><g transform="translate(203.892122, 38.081405)"><g/></g></g><g fill="#000000" fill-opacity="1"><g transform="translate(215.710534, 38.081405)"><g/></g></g><g fill="#000000" fill-opacity="1"><g transform="translate(227.534674, 38.081405)"><g><path d="M 6.453125 0.234375 C 5.878906 0.234375 5.394531 0.0351562 5 -0.359375 C 4.601562 -0.753906 4.40625 -1.238281 4.40625 -1.8125 L 4.40625 -29.640625 C 4.40625 -30.210938 4.601562 -30.703125 5 -31.109375 C 5.394531 -31.515625 5.878906 -31.71875 6.453125 -31.71875 L 24.140625 -31.71875 C 24.679688 -31.71875 25.140625 -31.53125 25.515625 -31.15625 C 25.898438 -30.78125 26.09375 -30.316406 26.09375 -29.765625 C 26.09375 -29.222656 25.898438 -28.769531 25.515625 -28.40625 C 25.140625 -28.039062 24.679688 -27.859375 24.140625 -27.859375 L 8.546875 -27.859375 L 8.546875 -17.8125 L 22.546875 -17.8125 C 23.085938 -17.8125 23.546875 -17.625 23.921875 -17.25 C 24.304688 -16.875 24.5 -16.410156 24.5 -15.859375 C 24.5 -15.316406 24.304688 -14.863281 23.921875 -14.5 C 23.546875 -14.132812 23.085938 -13.953125 22.546875 -13.953125 L 8.546875 -13.953125 L 8.546875 -1.8125 C 8.546875 -1.238281 8.335938 -0.753906 7.921875 -0.359375 C 7.515625 0.0351562 7.023438 0.234375 6.453125 0.234375 Z M 6.453125 0.234375 "/></g></g></g><g fill="#000000" fill-opacity="1"><g transform="translate(255.171574, 38.081405)"><g><path d="M 13.8125 0.234375 C 13.238281 0.234375 12.753906 0.0351562 12.359375 -0.359375 C 11.960938 -0.753906 11.765625 -1.238281 11.765625 -1.8125 L 11.765625 -27.859375 L 2.5 -27.859375 C 1.957031 -27.859375 1.503906 -28.039062 1.140625 -28.40625 C 0.773438 -28.769531 0.59375 -29.222656 0.59375 -29.765625 C 0.59375 -30.316406 0.773438 -30.78125 1.140625 -31.15625 C 1.503906 -31.53125 1.957031 -31.71875 2.5 -31.71875 L 25.140625 -31.71875 C 25.679688 -31.71875 26.140625 -31.53125 26.515625 -31.15625 C 26.898438 -30.78125 27.09375 -30.316406 27.09375 -29.765625 C 27.09375 -29.222656 26.898438 -28.769531 26.515625 -28.40625 C 26.140625 -28.039062 25.679688 -27.859375 25.140625 -27.859375 L 15.90625 -27.859375 L 15.90625 -1.8125 C 15.90625 -1.238281 15.703125 -0.753906 15.296875 -0.359375 C 14.890625 0.0351562 14.394531 0.234375 13.8125 0.234375 Z M 13.8125 0.234375 "/></g></g></g><g clip-path="url(#06b0600958)"><g clip-path="url(#9b0d43d40d)"><g clip-path="url(#4678f7cbac)"><path fill="#5cb6f9" d="M 192.046875 7.933594 L 226.148438 5.394531 L 228.6875 39.5 L 194.582031 42.035156 Z M 192.046875 7.933594 " fill-opacity="1" fill-rule="nonzero"/></g></g></g><g clip-path="url(#a9149e1631)"><g clip-path="url(#eb3d2ba069)"><g clip-path="url(#2b00b7a4f2)"><path fill="#233dff" d="M 192.046875 7.933594 L 226.148438 5.394531 L 228.6875 39.5 L 194.582031 42.035156 Z M 192.046875 7.933594 " fill-opacity="1" fill-rule="nonzero"/></g></g></g><g clip-path="url(#4228479f07)"><g clip-path="url(#eb964cac0c)"><path fill="#233dff" d="M 17.039062 42.5625 L 38.015625 42.5625 L 38.015625 46.339844 L 17.039062 46.339844 Z M 17.039062 42.5625 " fill-opacity="1" fill-rule="nonzero"/></g></g><g clip-path="url(#11cf0428aa)"><g clip-path="url(#a1943b8c1f)"><path fill="#5cb6f9" d="M 17.039062 42.5625 L 38.015625 42.5625 L 38.015625 46.339844 L 17.039062 46.339844 Z M 17.039062 42.5625 " fill-opacity="1" fill-rule="nonzero"/></g></g><g clip-path="url(#a4f3df9e96)"><g clip-path="url(#8b1a5b9848)"><path fill="#f4f6fc" d="M 27.171875 42.046875 L 31.984375 42.046875 L 31.984375 46.855469 L 27.171875 46.855469 Z M 27.171875 42.046875 " fill-opacity="1" fill-rule="nonzero"/></g></g><g clip-path="url(#a3b5f2437f)"><g clip-path="url(#1bce8079a6)"><g clip-path="url(#9c7fea305d)"><path fill="#f4f6fc" d="M 216.1875 30.699219 L 220.117188 26.769531 L 226.777344 33.429688 L 222.847656 37.359375 Z M 216.1875 30.699219 " fill-opacity="1" fill-rule="nonzero"/></g></g></g><g clip-path="url(#66bcd68f2a)"><g clip-path="url(#499209e327)"><g clip-path="url(#8eaebd66c3)"><path fill="#f4f6fc" d="M 200.613281 27.195312 L 204.542969 31.125 L 197.882812 37.785156 L 193.953125 33.855469 Z M 200.613281 27.195312 " fill-opacity="1" fill-rule="nonzero"/></g></g></g><g clip-path="url(#650ccea7ef)"><g clip-path="url(#0f97d37772)"><path fill="#f4f6fc" d="M 207.585938 4.996094 L 213.144531 4.996094 L 213.144531 14.414062 L 207.585938 14.414062 Z M 207.585938 4.996094 " fill-opacity="1" fill-rule="nonzero"/></g></g></svg>